<svg xmlns="http://www.w3.org/2000/svg" xmlns:xlink="http://www.w3.org/1999/xlink" width="2000" zoomAndPan="magnify" viewBox="0 0 1500 299.999988" height="400" preserveAspectRatio="xMidYMid meet" version="1.0"><defs><g/><clipPath id="42486d6193"><path d="M 631 0.398438 L 1392.398438 0.398438 L 1392.398438 154 L 631 154 Z M 631 0.398438 " clip-rule="nonzero"/></clipPath><clipPath id="80f62b4a07"><rect x="0" width="762" y="0" height="154"/></clipPath><clipPath id="b5d57f4645"><path d="M 0.398438 0.398438 L 589 0.398438 L 589 154.480469 L 0.398438 154.480469 Z M 0.398438 0.398438 " clip-rule="nonzero"/></clipPath><clipPath id="323989d077"><rect x="0" width="589" y="0" height="155"/></clipPath><clipPath id="e6fb476aa2"><rect x="0" width="1393" y="0" height="155"/></clipPath></defs><g transform="matrix(1, 0, 0, 1, 56, 80)"><g clip-path="url(#e6fb476aa2)"><g clip-path="url(#42486d6193)"><g transform="matrix(1, 0, 0, 1, 631, 0)"><g clip-path="url(#80f62b4a07)"><g fill="#ff00ff" fill-opacity="1"><g transform="translate(14.170926, 124.366851)"><g><path d="M 66.953125 -9.921875 C 62.472656 -5.441406 57.753906 -2.378906 52.796875 -0.734375 C 47.847656 0.898438 42.488281 1.71875 36.71875 1.71875 C 30.894531 1.71875 25.609375 0.847656 20.859375 -0.890625 C 16.109375 -2.640625 12.078125 -5.09375 8.765625 -8.25 C 5.460938 -11.40625 2.925781 -15.222656 1.15625 -19.703125 C -0.613281 -24.179688 -1.5 -29.179688 -1.5 -34.703125 C -1.5 -39.984375 -0.613281 -44.875 1.15625 -49.375 C 2.925781 -53.875 5.316406 -57.726562 8.328125 -60.9375 C 11.335938 -64.144531 14.878906 -66.65625 18.953125 -68.46875 C 23.035156 -70.289062 27.363281 -71.203125 31.9375 -71.203125 C 36.71875 -71.203125 40.875 -70.207031 44.40625 -68.21875 C 47.9375 -66.226562 50.5 -63.316406 52.09375 -59.484375 L 52.09375 -69.5625 L 65.90625 -69.5625 L 65.90625 -37.171875 L 52.09375 -37.171875 C 52.09375 -43.285156 50.410156 -48.171875 47.046875 -51.828125 C 43.691406 -55.492188 39.328125 -57.328125 33.953125 -57.328125 C 31.816406 -57.328125 29.566406 -56.890625 27.203125 -56.015625 C 24.835938 -55.140625 22.671875 -53.78125 20.703125 -51.9375 C 18.742188 -50.101562 17.113281 -47.765625 15.8125 -44.921875 C 14.519531 -42.085938 13.875 -38.679688 13.875 -34.703125 C 13.875 -30.828125 14.492188 -27.484375 15.734375 -24.671875 C 16.984375 -21.859375 18.613281 -19.539062 20.625 -17.71875 C 22.644531 -15.90625 25.035156 -14.535156 27.796875 -13.609375 C 30.554688 -12.691406 33.40625 -12.234375 36.34375 -12.234375 C 41.375 -12.234375 45.742188 -13.015625 49.453125 -14.578125 C 53.160156 -16.148438 56.351562 -18.234375 59.03125 -20.828125 Z M 66.953125 -9.921875 "/></g></g></g><g fill="#ff00ff" fill-opacity="1"><g transform="translate(97.612179, 124.366851)"><g><path d="M -0.296875 -20 C -0.296875 -24.082031 0.796875 -27.648438 2.984375 -30.703125 C 5.171875 -33.765625 8.039062 -36.316406 11.59375 -38.359375 C 15.15625 -40.398438 19.238281 -41.929688 23.84375 -42.953125 C 28.445312 -43.972656 33.140625 -44.484375 37.921875 -44.484375 C 40.554688 -44.484375 42.816406 -44.429688 44.703125 -44.328125 C 46.597656 -44.234375 48.515625 -44.085938 50.453125 -43.890625 L 50.453125 -46.65625 C 50.453125 -50.28125 49.046875 -52.988281 46.234375 -54.78125 C 43.421875 -56.570312 39.726562 -57.46875 35.15625 -57.46875 C 30.976562 -57.46875 26.722656 -56.882812 22.390625 -55.71875 C 18.054688 -54.550781 13.953125 -52.847656 10.078125 -50.609375 L 3.8125 -62.703125 C 8.382812 -65.335938 13.296875 -67.410156 18.546875 -68.921875 C 23.796875 -70.441406 29.332031 -71.203125 35.15625 -71.203125 C 38.9375 -71.203125 42.65625 -70.78125 46.3125 -69.9375 C 49.96875 -69.09375 53.25 -67.695312 56.15625 -65.75 C 59.070312 -63.8125 61.398438 -61.285156 63.140625 -58.171875 C 64.878906 -55.066406 65.75 -51.226562 65.75 -46.65625 L 65.75 0 L 50.453125 0 L 50.453125 -10.21875 C 48.015625 -6.4375 44.421875 -3.5 39.671875 -1.40625 C 34.921875 0.675781 29.804688 1.71875 24.328125 1.71875 C 20.941406 1.71875 17.742188 1.253906 14.734375 0.328125 C 11.722656 -0.585938 9.125 -1.960938 6.9375 -3.796875 C 4.75 -5.640625 2.992188 -7.914062 1.671875 -10.625 C 0.359375 -13.34375 -0.296875 -16.46875 -0.296875 -20 Z M 28.28125 -12.09375 C 31.320312 -12.09375 34.171875 -12.476562 36.828125 -13.25 C 39.492188 -14.019531 41.847656 -15.085938 43.890625 -16.453125 C 45.929688 -17.828125 47.535156 -19.484375 48.703125 -21.421875 C 49.867188 -23.359375 50.453125 -25.5 50.453125 -27.84375 L 50.453125 -30.453125 C 48.015625 -30.847656 45.722656 -31.070312 43.578125 -31.125 C 41.441406 -31.175781 39.554688 -31.203125 37.921875 -31.203125 C 30.359375 -31.203125 24.644531 -30.207031 20.78125 -28.21875 C 16.925781 -26.226562 15 -23.765625 15 -20.828125 C 15 -15.003906 19.425781 -12.09375 28.28125 -12.09375 Z M 28.28125 -12.09375 "/></g></g></g><g fill="#ff00ff" fill-opacity="1"><g transform="translate(181.053433, 124.366851)"><g><path d="M 67.84375 -53.0625 C 66 -53.957031 64.117188 -54.640625 62.203125 -55.109375 C 60.296875 -55.585938 58.097656 -55.828125 55.609375 -55.828125 C 52.171875 -55.828125 48.945312 -55.316406 45.9375 -54.296875 C 42.925781 -53.273438 40.328125 -51.742188 38.140625 -49.703125 C 35.953125 -47.671875 34.25 -45.125 33.03125 -42.0625 C 31.8125 -39 31.203125 -35.378906 31.203125 -31.203125 L 31.203125 -13.875 L 46.796875 -13.875 L 46.796875 0 L 0 0 L 0 -13.875 L 15.75 -13.875 L 15.75 -55.609375 L 0 -55.609375 L 0 -69.5625 L 31.203125 -69.5625 L 31.203125 -52.09375 C 33.734375 -59.0625 37.472656 -63.988281 42.421875 -66.875 C 47.378906 -69.757812 53.265625 -71.203125 60.078125 -71.203125 C 62.222656 -71.203125 64.460938 -70.976562 66.796875 -70.53125 C 69.140625 -70.082031 71.429688 -69.285156 73.671875 -68.140625 Z M 67.84375 -53.0625 "/></g></g></g><g fill="#ff00ff" fill-opacity="1"><g transform="translate(264.494686, 124.366851)"><g><path d="M 14.1875 -28.890625 C 14.925781 -24.109375 17.195312 -20.132812 21 -16.96875 C 24.8125 -13.8125 29.925781 -12.234375 36.34375 -12.234375 C 41.375 -12.234375 45.742188 -13.015625 49.453125 -14.578125 C 53.160156 -16.148438 56.351562 -18.234375 59.03125 -20.828125 L 66.953125 -9.921875 C 62.472656 -5.441406 57.734375 -2.378906 52.734375 -0.734375 C 47.734375 0.898438 42.269531 1.71875 36.34375 1.71875 C 30.96875 1.71875 25.96875 0.820312 21.34375 -0.96875 C 16.71875 -2.757812 12.710938 -5.257812 9.328125 -8.46875 C 5.941406 -11.675781 3.289062 -15.492188 1.375 -19.921875 C -0.539062 -24.359375 -1.5 -29.285156 -1.5 -34.703125 C -1.5 -39.984375 -0.613281 -44.847656 1.15625 -49.296875 C 2.925781 -53.753906 5.414062 -57.609375 8.625 -60.859375 C 11.832031 -64.117188 15.675781 -66.65625 20.15625 -68.46875 C 24.632812 -70.289062 29.582031 -71.203125 35 -71.203125 C 40.625 -71.203125 45.722656 -70.242188 50.296875 -68.328125 C 54.878906 -66.410156 58.800781 -63.632812 62.0625 -60 C 65.320312 -56.375 67.867188 -51.9375 69.703125 -46.6875 C 71.546875 -41.4375 72.46875 -35.503906 72.46875 -28.890625 Z M 55.015625 -42.46875 C 54.210938 -46.945312 51.894531 -50.539062 48.0625 -53.25 C 44.226562 -55.96875 39.875 -57.328125 35 -57.328125 C 30.125 -57.328125 25.742188 -55.96875 21.859375 -53.25 C 17.984375 -50.539062 15.648438 -46.945312 14.859375 -42.46875 Z M 55.015625 -42.46875 "/></g></g></g><g fill="#ff00ff" fill-opacity="1"><g transform="translate(347.935939, 124.366851)"><g><path d="M 0 -28.734375 L 0 -42.625 L 69.5625 -42.625 L 69.5625 -28.734375 Z M 0 -28.734375 "/></g></g></g><g fill="#ff00ff" fill-opacity="1"><g transform="translate(431.377192, 124.366851)"><g><path d="M 66.953125 -9.921875 C 62.472656 -5.441406 57.753906 -2.378906 52.796875 -0.734375 C 47.847656 0.898438 42.488281 1.71875 36.71875 1.71875 C 30.894531 1.71875 25.609375 0.847656 20.859375 -0.890625 C 16.109375 -2.640625 12.078125 -5.09375 8.765625 -8.25 C 5.460938 -11.40625 2.925781 -15.222656 1.15625 -19.703125 C -0.613281 -24.179688 -1.5 -29.179688 -1.5 -34.703125 C -1.5 -39.984375 -0.613281 -44.875 1.15625 -49.375 C 2.925781 -53.875 5.316406 -57.726562 8.328125 -60.9375 C 11.335938 -64.144531 14.878906 -66.65625 18.953125 -68.46875 C 23.035156 -70.289062 27.363281 -71.203125 31.9375 -71.203125 C 36.71875 -71.203125 40.875 -70.207031 44.40625 -68.21875 C 47.9375 -66.226562 50.5 -63.316406 52.09375 -59.484375 L 52.09375 -69.5625 L 65.90625 -69.5625 L 65.90625 -37.171875 L 52.09375 -37.171875 C 52.09375 -43.285156 50.410156 -48.171875 47.046875 -51.828125 C 43.691406 -55.492188 39.328125 -57.328125 33.953125 -57.328125 C 31.816406 -57.328125 29.566406 -56.890625 27.203125 -56.015625 C 24.835938 -55.140625 22.671875 -53.78125 20.703125 -51.9375 C 18.742188 -50.101562 17.113281 -47.765625 15.8125 -44.921875 C 14.519531 -42.085938 13.875 -38.679688 13.875 -34.703125 C 13.875 -30.828125 14.492188 -27.484375 15.734375 -24.671875 C 16.984375 -21.859375 18.613281 -19.539062 20.625 -17.71875 C 22.644531 -15.90625 25.035156 -14.535156 27.796875 -13.609375 C 30.554688 -12.691406 33.40625 -12.234375 36.34375 -12.234375 C 41.375 -12.234375 45.742188 -13.015625 49.453125 -14.578125 C 53.160156 -16.148438 56.351562 -18.234375 59.03125 -20.828125 Z M 66.953125 -9.921875 "/></g></g></g><g fill="#ff00ff" fill-opacity="1"><g transform="translate(514.818446, 124.366851)"><g><path d="M 71.359375 -34.703125 C 71.359375 -29.285156 70.5 -24.359375 68.78125 -19.921875 C 67.0625 -15.492188 64.597656 -11.675781 61.390625 -8.46875 C 58.179688 -5.257812 54.335938 -2.757812 49.859375 -0.96875 C 45.378906 0.820312 40.378906 1.71875 34.859375 1.71875 C 29.429688 1.71875 24.476562 0.820312 20 -0.96875 C 15.519531 -2.757812 11.675781 -5.257812 8.46875 -8.46875 C 5.257812 -11.675781 2.796875 -15.492188 1.078125 -19.921875 C -0.640625 -24.359375 -1.5 -29.285156 -1.5 -34.703125 C -1.5 -39.984375 -0.640625 -44.875 1.078125 -49.375 C 2.796875 -53.875 5.257812 -57.753906 8.46875 -61.015625 C 11.675781 -64.273438 15.519531 -66.785156 20 -68.546875 C 24.476562 -70.316406 29.429688 -71.203125 34.859375 -71.203125 C 40.378906 -71.203125 45.378906 -70.316406 49.859375 -68.546875 C 54.335938 -66.785156 58.179688 -64.273438 61.390625 -61.015625 C 64.597656 -57.753906 67.0625 -53.875 68.78125 -49.375 C 70.5 -44.875 71.359375 -39.984375 71.359375 -34.703125 Z M 55.984375 -34.703125 C 55.984375 -37.835938 55.492188 -40.8125 54.515625 -43.625 C 53.546875 -46.4375 52.140625 -48.835938 50.296875 -50.828125 C 48.460938 -52.816406 46.238281 -54.394531 43.625 -55.5625 C 41.007812 -56.738281 38.085938 -57.328125 34.859375 -57.328125 C 31.578125 -57.328125 28.640625 -56.738281 26.046875 -55.5625 C 23.460938 -54.394531 21.273438 -52.816406 19.484375 -50.828125 C 17.691406 -48.835938 16.304688 -46.4375 15.328125 -43.625 C 14.359375 -40.8125 13.875 -37.835938 13.875 -34.703125 C 13.875 -31.421875 14.359375 -28.4375 15.328125 -25.75 C 16.304688 -23.0625 17.691406 -20.695312 19.484375 -18.65625 C 21.273438 -16.613281 23.460938 -15.03125 26.046875 -13.90625 C 28.640625 -12.789062 31.578125 -12.234375 34.859375 -12.234375 C 38.085938 -12.234375 41.007812 -12.789062 43.625 -13.90625 C 46.238281 -15.03125 48.460938 -16.613281 50.296875 -18.65625 C 52.140625 -20.695312 53.546875 -23.0625 54.515625 -25.75 C 55.492188 -28.4375 55.984375 -31.421875 55.984375 -34.703125 Z M 55.984375 -34.703125 "/></g></g></g><g fill="#ff00ff" fill-opacity="1"><g transform="translate(598.259699, 124.366851)"><g><path d="M 44.1875 -78.59375 L 25.375 -78.59375 L 25.375 -97.40625 L 44.1875 -97.40625 Z M 58.375 0 L 11.640625 0 L 11.640625 -13.875 L 27.015625 -13.875 L 27.015625 -55.609375 L 11.640625 -55.609375 L 11.640625 -69.5625 L 42.46875 -69.5625 L 42.46875 -13.875 L 58.375 -13.875 Z M 58.375 0 "/></g></g></g><g fill="#ff00ff" fill-opacity="1"><g transform="translate(681.700952, 124.366851)"><g><path d="M 65.90625 0 L 50.453125 0 L 50.453125 -42.921875 C 50.453125 -48.335938 49.429688 -52.09375 47.390625 -54.1875 C 45.347656 -56.28125 42.390625 -57.328125 38.515625 -57.328125 C 32.796875 -57.328125 28.128906 -55.007812 24.515625 -50.375 C 20.910156 -45.75 19.109375 -39.359375 19.109375 -31.203125 L 19.109375 0 L 3.65625 0 L 3.65625 -69.5625 L 19.109375 -69.5625 L 19.109375 -52.09375 C 20.648438 -58.113281 23.507812 -62.800781 27.6875 -66.15625 C 31.863281 -69.519531 37.015625 -71.203125 43.140625 -71.203125 C 50.253906 -71.203125 55.828125 -68.890625 59.859375 -64.265625 C 63.890625 -59.640625 65.90625 -52.523438 65.90625 -42.921875 Z M 65.90625 0 "/></g></g></g><g fill="#00ffff" fill-opacity="1"><g transform="translate(4.426083, 124.366851)"><g><path d="M 66.953125 -9.921875 C 62.472656 -5.441406 57.753906 -2.378906 52.796875 -0.734375 C 47.847656 0.898438 42.488281 1.71875 36.71875 1.71875 C 30.894531 1.71875 25.609375 0.847656 20.859375 -0.890625 C 16.109375 -2.640625 12.078125 -5.09375 8.765625 -8.25 C 5.460938 -11.40625 2.925781 -15.222656 1.15625 -19.703125 C -0.613281 -24.179688 -1.5 -29.179688 -1.5 -34.703125 C -1.5 -39.984375 -0.613281 -44.875 1.15625 -49.375 C 2.925781 -53.875 5.316406 -57.726562 8.328125 -60.9375 C 11.335938 -64.144531 14.878906 -66.65625 18.953125 -68.46875 C 23.035156 -70.289062 27.363281 -71.203125 31.9375 -71.203125 C 36.71875 -71.203125 40.875 -70.207031 44.40625 -68.21875 C 47.9375 -66.226562 50.5 -63.316406 52.09375 -59.484375 L 52.09375 -69.5625 L 65.90625 -69.5625 L 65.90625 -37.171875 L 52.09375 -37.171875 C 52.09375 -43.285156 50.410156 -48.171875 47.046875 -51.828125 C 43.691406 -55.492188 39.328125 -57.328125 33.953125 -57.328125 C 31.816406 -57.328125 29.566406 -56.890625 27.203125 -56.015625 C 24.835938 -55.140625 22.671875 -53.78125 20.703125 -51.9375 C 18.742188 -50.101562 17.113281 -47.765625 15.8125 -44.921875 C 14.519531 -42.085938 13.875 -38.679688 13.875 -34.703125 C 13.875 -30.828125 14.492188 -27.484375 15.734375 -24.671875 C 16.984375 -21.859375 18.613281 -19.539062 20.625 -17.71875 C 22.644531 -15.90625 25.035156 -14.535156 27.796875 -13.609375 C 30.554688 -12.691406 33.40625 -12.234375 36.34375 -12.234375 C 41.375 -12.234375 45.742188 -13.015625 49.453125 -14.578125 C 53.160156 -16.148438 56.351562 -18.234375 59.03125 -20.828125 Z M 66.953125 -9.921875 "/></g></g></g><g fill="#00ffff" fill-opacity="1"><g transform="translate(87.867337, 124.366851)"><g><path d="M -0.296875 -20 C -0.296875 -24.082031 0.796875 -27.648438 2.984375 -30.703125 C 5.171875 -33.765625 8.039062 -36.316406 11.59375 -38.359375 C 15.15625 -40.398438 19.238281 -41.929688 23.84375 -42.953125 C 28.445312 -43.972656 33.140625 -44.484375 37.921875 -44.484375 C 40.554688 -44.484375 42.816406 -44.429688 44.703125 -44.328125 C 46.597656 -44.234375 48.515625 -44.085938 50.453125 -43.890625 L 50.453125 -46.65625 C 50.453125 -50.28125 49.046875 -52.988281 46.234375 -54.78125 C 43.421875 -56.570312 39.726562 -57.46875 35.15625 -57.46875 C 30.976562 -57.46875 26.722656 -56.882812 22.390625 -55.71875 C 18.054688 -54.550781 13.953125 -52.847656 10.078125 -50.609375 L 3.8125 -62.703125 C 8.382812 -65.335938 13.296875 -67.410156 18.546875 -68.921875 C 23.796875 -70.441406 29.332031 -71.203125 35.15625 -71.203125 C 38.9375 -71.203125 42.65625 -70.78125 46.3125 -69.9375 C 49.96875 -69.09375 53.25 -67.695312 56.15625 -65.75 C 59.070312 -63.8125 61.398438 -61.285156 63.140625 -58.171875 C 64.878906 -55.066406 65.75 -51.226562 65.75 -46.65625 L 65.75 0 L 50.453125 0 L 50.453125 -10.21875 C 48.015625 -6.4375 44.421875 -3.5 39.671875 -1.40625 C 34.921875 0.675781 29.804688 1.71875 24.328125 1.71875 C 20.941406 1.71875 17.742188 1.253906 14.734375 0.328125 C 11.722656 -0.585938 9.125 -1.960938 6.9375 -3.796875 C 4.75 -5.640625 2.992188 -7.914062 1.671875 -10.625 C 0.359375 -13.34375 -0.296875 -16.46875 -0.296875 -20 Z M 28.28125 -12.09375 C 31.320312 -12.09375 34.171875 -12.476562 36.828125 -13.25 C 39.492188 -14.019531 41.847656 -15.085938 43.890625 -16.453125 C 45.929688 -17.828125 47.535156 -19.484375 48.703125 -21.421875 C 49.867188 -23.359375 50.453125 -25.5 50.453125 -27.84375 L 50.453125 -30.453125 C 48.015625 -30.847656 45.722656 -31.070312 43.578125 -31.125 C 41.441406 -31.175781 39.554688 -31.203125 37.921875 -31.203125 C 30.359375 -31.203125 24.644531 -30.207031 20.78125 -28.21875 C 16.925781 -26.226562 15 -23.765625 15 -20.828125 C 15 -15.003906 19.425781 -12.09375 28.28125 -12.09375 Z M 28.28125 -12.09375 "/></g></g></g><g fill="#00ffff" fill-opacity="1"><g transform="translate(171.30859, 124.366851)"><g><path d="M 67.84375 -53.0625 C 66 -53.957031 64.117188 -54.640625 62.203125 -55.109375 C 60.296875 -55.585938 58.097656 -55.828125 55.609375 -55.828125 C 52.171875 -55.828125 48.945312 -55.316406 45.9375 -54.296875 C 42.925781 -53.273438 40.328125 -51.742188 38.140625 -49.703125 C 35.953125 -47.671875 34.25 -45.125 33.03125 -42.0625 C 31.8125 -39 31.203125 -35.378906 31.203125 -31.203125 L 31.203125 -13.875 L 46.796875 -13.875 L 46.796875 0 L 0 0 L 0 -13.875 L 15.75 -13.875 L 15.75 -55.609375 L 0 -55.609375 L 0 -69.5625 L 31.203125 -69.5625 L 31.203125 -52.09375 C 33.734375 -59.0625 37.472656 -63.988281 42.421875 -66.875 C 47.378906 -69.757812 53.265625 -71.203125 60.078125 -71.203125 C 62.222656 -71.203125 64.460938 -70.976562 66.796875 -70.53125 C 69.140625 -70.082031 71.429688 -69.285156 73.671875 -68.140625 Z M 67.84375 -53.0625 "/></g></g></g><g fill="#00ffff" fill-opacity="1"><g transform="translate(254.749843, 124.366851)"><g><path d="M 14.1875 -28.890625 C 14.925781 -24.109375 17.195312 -20.132812 21 -16.96875 C 24.8125 -13.8125 29.925781 -12.234375 36.34375 -12.234375 C 41.375 -12.234375 45.742188 -13.015625 49.453125 -14.578125 C 53.160156 -16.148438 56.351562 -18.234375 59.03125 -20.828125 L 66.953125 -9.921875 C 62.472656 -5.441406 57.734375 -2.378906 52.734375 -0.734375 C 47.734375 0.898438 42.269531 1.71875 36.34375 1.71875 C 30.96875 1.71875 25.96875 0.820312 21.34375 -0.96875 C 16.71875 -2.757812 12.710938 -5.257812 9.328125 -8.46875 C 5.941406 -11.675781 3.289062 -15.492188 1.375 -19.921875 C -0.539062 -24.359375 -1.5 -29.285156 -1.5 -34.703125 C -1.5 -39.984375 -0.613281 -44.847656 1.15625 -49.296875 C 2.925781 -53.753906 5.414062 -57.609375 8.625 -60.859375 C 11.832031 -64.117188 15.675781 -66.65625 20.15625 -68.46875 C 24.632812 -70.289062 29.582031 -71.203125 35 -71.203125 C 40.625 -71.203125 45.722656 -70.242188 50.296875 -68.328125 C 54.878906 -66.410156 58.800781 -63.632812 62.0625 -60 C 65.320312 -56.375 67.867188 -51.9375 69.703125 -46.6875 C 71.546875 -41.4375 72.46875 -35.503906 72.46875 -28.890625 Z M 55.015625 -42.46875 C 54.210938 -46.945312 51.894531 -50.539062 48.0625 -53.25 C 44.226562 -55.96875 39.875 -57.328125 35 -57.328125 C 30.125 -57.328125 25.742188 -55.96875 21.859375 -53.25 C 17.984375 -50.539062 15.648438 -46.945312 14.859375 -42.46875 Z M 55.015625 -42.46875 "/></g></g></g><g fill="#00ffff" fill-opacity="1"><g transform="translate(338.191096, 124.366851)"><g><path d="M 0 -28.734375 L 0 -42.625 L 69.5625 -42.625 L 69.5625 -28.734375 Z M 0 -28.734375 "/></g></g></g><g fill="#00ffff" fill-opacity="1"><g transform="translate(421.63235, 124.366851)"><g><path d="M 66.953125 -9.921875 C 62.472656 -5.441406 57.753906 -2.378906 52.796875 -0.734375 C 47.847656 0.898438 42.488281 1.71875 36.71875 1.71875 C 30.894531 1.71875 25.609375 0.847656 20.859375 -0.890625 C 16.109375 -2.640625 12.078125 -5.09375 8.765625 -8.25 C 5.460938 -11.40625 2.925781 -15.222656 1.15625 -19.703125 C -0.613281 -24.179688 -1.5 -29.179688 -1.5 -34.703125 C -1.5 -39.984375 -0.613281 -44.875 1.15625 -49.375 C 2.925781 -53.875 5.316406 -57.726562 8.328125 -60.9375 C 11.335938 -64.144531 14.878906 -66.65625 18.953125 -68.46875 C 23.035156 -70.289062 27.363281 -71.203125 31.9375 -71.203125 C 36.71875 -71.203125 40.875 -70.207031 44.40625 -68.21875 C 47.9375 -66.226562 50.5 -63.316406 52.09375 -59.484375 L 52.09375 -69.5625 L 65.90625 -69.5625 L 65.90625 -37.171875 L 52.09375 -37.171875 C 52.09375 -43.285156 50.410156 -48.171875 47.046875 -51.828125 C 43.691406 -55.492188 39.328125 -57.328125 33.953125 -57.328125 C 31.816406 -57.328125 29.566406 -56.890625 27.203125 -56.015625 C 24.835938 -55.140625 22.671875 -53.78125 20.703125 -51.9375 C 18.742188 -50.101562 17.113281 -47.765625 15.8125 -44.921875 C 14.519531 -42.085938 13.875 -38.679688 13.875 -34.703125 C 13.875 -30.828125 14.492188 -27.484375 15.734375 -24.671875 C 16.984375 -21.859375 18.613281 -19.539062 20.625 -17.71875 C 22.644531 -15.90625 25.035156 -14.535156 27.796875 -13.609375 C 30.554688 -12.691406 33.40625 -12.234375 36.34375 -12.234375 C 41.375 -12.234375 45.742188 -13.015625 49.453125 -14.578125 C 53.160156 -16.148438 56.351562 -18.234375 59.03125 -20.828125 Z M 66.953125 -9.921875 "/></g></g></g><g fill="#00ffff" fill-opacity="1"><g transform="translate(505.073603, 124.366851)"><g><path d="M 71.359375 -34.703125 C 71.359375 -29.285156 70.5 -24.359375 68.78125 -19.921875 C 67.0625 -15.492188 64.597656 -11.675781 61.390625 -8.46875 C 58.179688 -5.257812 54.335938 -2.757812 49.859375 -0.96875 C 45.378906 0.820312 40.378906 1.71875 34.859375 1.71875 C 29.429688 1.71875 24.476562 0.820312 20 -0.96875 C 15.519531 -2.757812 11.675781 -5.257812 8.46875 -8.46875 C 5.257812 -11.675781 2.796875 -15.492188 1.078125 -19.921875 C -0.640625 -24.359375 -1.5 -29.285156 -1.5 -34.703125 C -1.5 -39.984375 -0.640625 -44.875 1.078125 -49.375 C 2.796875 -53.875 5.257812 -57.753906 8.46875 -61.015625 C 11.675781 -64.273438 15.519531 -66.785156 20 -68.546875 C 24.476562 -70.316406 29.429688 -71.203125 34.859375 -71.203125 C 40.378906 -71.203125 45.378906 -70.316406 49.859375 -68.546875 C 54.335938 -66.785156 58.179688 -64.273438 61.390625 -61.015625 C 64.597656 -57.753906 67.0625 -53.875 68.78125 -49.375 C 70.5 -44.875 71.359375 -39.984375 71.359375 -34.703125 Z M 55.984375 -34.703125 C 55.984375 -37.835938 55.492188 -40.8125 54.515625 -43.625 C 53.546875 -46.4375 52.140625 -48.835938 50.296875 -50.828125 C 48.460938 -52.816406 46.238281 -54.394531 43.625 -55.5625 C 41.007812 -56.738281 38.085938 -57.328125 34.859375 -57.328125 C 31.578125 -57.328125 28.640625 -56.738281 26.046875 -55.5625 C 23.460938 -54.394531 21.273438 -52.816406 19.484375 -50.828125 C 17.691406 -48.835938 16.304688 -46.4375 15.328125 -43.625 C 14.359375 -40.8125 13.875 -37.835938 13.875 -34.703125 C 13.875 -31.421875 14.359375 -28.4375 15.328125 -25.75 C 16.304688 -23.0625 17.691406 -20.695312 19.484375 -18.65625 C 21.273438 -16.613281 23.460938 -15.03125 26.046875 -13.90625 C 28.640625 -12.789062 31.578125 -12.234375 34.859375 -12.234375 C 38.085938 -12.234375 41.007812 -12.789062 43.625 -13.90625 C 46.238281 -15.03125 48.460938 -16.613281 50.296875 -18.65625 C 52.140625 -20.695312 53.546875 -23.0625 54.515625 -25.75 C 55.492188 -28.4375 55.984375 -31.421875 55.984375 -34.703125 Z M 55.984375 -34.703125 "/></g></g></g><g fill="#00ffff" fill-opacity="1"><g transform="translate(588.514856, 124.366851)"><g><path d="M 44.1875 -78.59375 L 25.375 -78.59375 L 25.375 -97.40625 L 44.1875 -97.40625 Z M 58.375 0 L 11.640625 0 L 11.640625 -13.875 L 27.015625 -13.875 L 27.015625 -55.609375 L 11.640625 -55.609375 L 11.640625 -69.5625 L 42.46875 -69.5625 L 42.46875 -13.875 L 58.375 -13.875 Z M 58.375 0 "/></g></g></g><g fill="#00ffff" fill-opacity="1"><g transform="translate(671.956109, 124.366851)"><g><path d="M 65.90625 0 L 50.453125 0 L 50.453125 -42.921875 C 50.453125 -48.335938 49.429688 -52.09375 47.390625 -54.1875 C 45.347656 -56.28125 42.390625 -57.328125 38.515625 -57.328125 C 32.796875 -57.328125 28.128906 -55.007812 24.515625 -50.375 C 20.910156 -45.75 19.109375 -39.359375 19.109375 -31.203125 L 19.109375 0 L 3.65625 0 L 3.65625 -69.5625 L 19.109375 -69.5625 L 19.109375 -52.09375 C 20.648438 -58.113281 23.507812 -62.800781 27.6875 -66.15625 C 31.863281 -69.519531 37.015625 -71.203125 43.140625 -71.203125 C 50.253906 -71.203125 55.828125 -68.890625 59.859375 -64.265625 C 63.890625 -59.640625 65.90625 -52.523438 65.90625 -42.921875 Z M 65.90625 0 "/></g></g></g><g fill="#141938" fill-opacity="1"><g transform="translate(9.298505, 124.366851)"><g><path d="M 66.953125 -9.921875 C 62.472656 -5.441406 57.753906 -2.378906 52.796875 -0.734375 C 47.847656 0.898438 42.488281 1.71875 36.71875 1.71875 C 30.894531 1.71875 25.609375 0.847656 20.859375 -0.890625 C 16.109375 -2.640625 12.078125 -5.09375 8.765625 -8.25 C 5.460938 -11.40625 2.925781 -15.222656 1.15625 -19.703125 C -0.613281 -24.179688 -1.5 -29.179688 -1.5 -34.703125 C -1.5 -39.984375 -0.613281 -44.875 1.15625 -49.375 C 2.925781 -53.875 5.316406 -57.726562 8.328125 -60.9375 C 11.335938 -64.144531 14.878906 -66.65625 18.953125 -68.46875 C 23.035156 -70.289062 27.363281 -71.203125 31.9375 -71.203125 C 36.71875 -71.203125 40.875 -70.207031 44.40625 -68.21875 C 47.9375 -66.226562 50.5 -63.316406 52.09375 -59.484375 L 52.09375 -69.5625 L 65.90625 -69.5625 L 65.90625 -37.171875 L 52.09375 -37.171875 C 52.09375 -43.285156 50.410156 -48.171875 47.046875 -51.828125 C 43.691406 -55.492188 39.328125 -57.328125 33.953125 -57.328125 C 31.816406 -57.328125 29.566406 -56.890625 27.203125 -56.015625 C 24.835938 -55.140625 22.671875 -53.78125 20.703125 -51.9375 C 18.742188 -50.101562 17.113281 -47.765625 15.8125 -44.921875 C 14.519531 -42.085938 13.875 -38.679688 13.875 -34.703125 C 13.875 -30.828125 14.492188 -27.484375 15.734375 -24.671875 C 16.984375 -21.859375 18.613281 -19.539062 20.625 -17.71875 C 22.644531 -15.90625 25.035156 -14.535156 27.796875 -13.609375 C 30.554688 -12.691406 33.40625 -12.234375 36.34375 -12.234375 C 41.375 -12.234375 45.742188 -13.015625 49.453125 -14.578125 C 53.160156 -16.148438 56.351562 -18.234375 59.03125 -20.828125 Z M 66.953125 -9.921875 "/></g></g></g><g fill="#141938" fill-opacity="1"><g transform="translate(92.739758, 124.366851)"><g><path d="M -0.296875 -20 C -0.296875 -24.082031 0.796875 -27.648438 2.984375 -30.703125 C 5.171875 -33.765625 8.039062 -36.316406 11.59375 -38.359375 C 15.15625 -40.398438 19.238281 -41.929688 23.84375 -42.953125 C 28.445312 -43.972656 33.140625 -44.484375 37.921875 -44.484375 C 40.554688 -44.484375 42.816406 -44.429688 44.703125 -44.328125 C 46.597656 -44.234375 48.515625 -44.085938 50.453125 -43.890625 L 50.453125 -46.65625 C 50.453125 -50.28125 49.046875 -52.988281 46.234375 -54.78125 C 43.421875 -56.570312 39.726562 -57.46875 35.15625 -57.46875 C 30.976562 -57.46875 26.722656 -56.882812 22.390625 -55.71875 C 18.054688 -54.550781 13.953125 -52.847656 10.078125 -50.609375 L 3.8125 -62.703125 C 8.382812 -65.335938 13.296875 -67.410156 18.546875 -68.921875 C 23.796875 -70.441406 29.332031 -71.203125 35.15625 -71.203125 C 38.9375 -71.203125 42.65625 -70.78125 46.3125 -69.9375 C 49.96875 -69.09375 53.25 -67.695312 56.15625 -65.75 C 59.070312 -63.8125 61.398438 -61.285156 63.140625 -58.171875 C 64.878906 -55.066406 65.75 -51.226562 65.75 -46.65625 L 65.75 0 L 50.453125 0 L 50.453125 -10.21875 C 48.015625 -6.4375 44.421875 -3.5 39.671875 -1.40625 C 34.921875 0.675781 29.804688 1.71875 24.328125 1.71875 C 20.941406 1.71875 17.742188 1.253906 14.734375 0.328125 C 11.722656 -0.585938 9.125 -1.960938 6.9375 -3.796875 C 4.75 -5.640625 2.992188 -7.914062 1.671875 -10.625 C 0.359375 -13.34375 -0.296875 -16.46875 -0.296875 -20 Z M 28.28125 -12.09375 C 31.320312 -12.09375 34.171875 -12.476562 36.828125 -13.25 C 39.492188 -14.019531 41.847656 -15.085938 43.890625 -16.453125 C 45.929688 -17.828125 47.535156 -19.484375 48.703125 -21.421875 C 49.867188 -23.359375 50.453125 -25.5 50.453125 -27.84375 L 50.453125 -30.453125 C 48.015625 -30.847656 45.722656 -31.070312 43.578125 -31.125 C 41.441406 -31.175781 39.554688 -31.203125 37.921875 -31.203125 C 30.359375 -31.203125 24.644531 -30.207031 20.78125 -28.21875 C 16.925781 -26.226562 15 -23.765625 15 -20.828125 C 15 -15.003906 19.425781 -12.09375 28.28125 -12.09375 Z M 28.28125 -12.09375 "/></g></g></g><g fill="#141938" fill-opacity="1"><g transform="translate(176.181011, 124.366851)"><g><path d="M 67.84375 -53.0625 C 66 -53.957031 64.117188 -54.640625 62.203125 -55.109375 C 60.296875 -55.585938 58.097656 -55.828125 55.609375 -55.828125 C 52.171875 -55.828125 48.945312 -55.316406 45.9375 -54.296875 C 42.925781 -53.273438 40.328125 -51.742188 38.140625 -49.703125 C 35.953125 -47.671875 34.25 -45.125 33.03125 -42.0625 C 31.8125 -39 31.203125 -35.378906 31.203125 -31.203125 L 31.203125 -13.875 L 46.796875 -13.875 L 46.796875 0 L 0 0 L 0 -13.875 L 15.75 -13.875 L 15.75 -55.609375 L 0 -55.609375 L 0 -69.5625 L 31.203125 -69.5625 L 31.203125 -52.09375 C 33.734375 -59.0625 37.472656 -63.988281 42.421875 -66.875 C 47.378906 -69.757812 53.265625 -71.203125 60.078125 -71.203125 C 62.222656 -71.203125 64.460938 -70.976562 66.796875 -70.53125 C 69.140625 -70.082031 71.429688 -69.285156 73.671875 -68.140625 Z M 67.84375 -53.0625 "/></g></g></g><g fill="#141938" fill-opacity="1"><g transform="translate(259.622264, 124.366851)"><g><path d="M 14.1875 -28.890625 C 14.925781 -24.109375 17.195312 -20.132812 21 -16.96875 C 24.8125 -13.8125 29.925781 -12.234375 36.34375 -12.234375 C 41.375 -12.234375 45.742188 -13.015625 49.453125 -14.578125 C 53.160156 -16.148438 56.351562 -18.234375 59.03125 -20.828125 L 66.953125 -9.921875 C 62.472656 -5.441406 57.734375 -2.378906 52.734375 -0.734375 C 47.734375 0.898438 42.269531 1.71875 36.34375 1.71875 C 30.96875 1.71875 25.96875 0.820312 21.34375 -0.96875 C 16.71875 -2.757812 12.710938 -5.257812 9.328125 -8.46875 C 5.941406 -11.675781 3.289062 -15.492188 1.375 -19.921875 C -0.539062 -24.359375 -1.5 -29.285156 -1.5 -34.703125 C -1.5 -39.984375 -0.613281 -44.847656 1.15625 -49.296875 C 2.925781 -53.753906 5.414062 -57.609375 8.625 -60.859375 C 11.832031 -64.117188 15.675781 -66.65625 20.15625 -68.46875 C 24.632812 -70.289062 29.582031 -71.203125 35 -71.203125 C 40.625 -71.203125 45.722656 -70.242188 50.296875 -68.328125 C 54.878906 -66.410156 58.800781 -63.632812 62.0625 -60 C 65.320312 -56.375 67.867188 -51.9375 69.703125 -46.6875 C 71.546875 -41.4375 72.46875 -35.503906 72.46875 -28.890625 Z M 55.015625 -42.46875 C 54.210938 -46.945312 51.894531 -50.539062 48.0625 -53.25 C 44.226562 -55.96875 39.875 -57.328125 35 -57.328125 C 30.125 -57.328125 25.742188 -55.96875 21.859375 -53.25 C 17.984375 -50.539062 15.648438 -46.945312 14.859375 -42.46875 Z M 55.015625 -42.46875 "/></g></g></g><g fill="#141938" fill-opacity="1"><g transform="translate(343.063518, 124.366851)"><g><path d="M 0 -28.734375 L 0 -42.625 L 69.5625 -42.625 L 69.5625 -28.734375 Z M 0 -28.734375 "/></g></g></g><g fill="#141938" fill-opacity="1"><g transform="translate(426.504771, 124.366851)"><g><path d="M 66.953125 -9.921875 C 62.472656 -5.441406 57.753906 -2.378906 52.796875 -0.734375 C 47.847656 0.898438 42.488281 1.71875 36.71875 1.71875 C 30.894531 1.71875 25.609375 0.847656 20.859375 -0.890625 C 16.109375 -2.640625 12.078125 -5.09375 8.765625 -8.25 C 5.460938 -11.40625 2.925781 -15.222656 1.15625 -19.703125 C -0.613281 -24.179688 -1.5 -29.179688 -1.5 -34.703125 C -1.5 -39.984375 -0.613281 -44.875 1.15625 -49.375 C 2.925781 -53.875 5.316406 -57.726562 8.328125 -60.9375 C 11.335938 -64.144531 14.878906 -66.65625 18.953125 -68.46875 C 23.035156 -70.289062 27.363281 -71.203125 31.9375 -71.203125 C 36.71875 -71.203125 40.875 -70.207031 44.40625 -68.21875 C 47.9375 -66.226562 50.5 -63.316406 52.09375 -59.484375 L 52.09375 -69.5625 L 65.90625 -69.5625 L 65.90625 -37.171875 L 52.09375 -37.171875 C 52.09375 -43.285156 50.410156 -48.171875 47.046875 -51.828125 C 43.691406 -55.492188 39.328125 -57.328125 33.953125 -57.328125 C 31.816406 -57.328125 29.566406 -56.890625 27.203125 -56.015625 C 24.835938 -55.140625 22.671875 -53.78125 20.703125 -51.9375 C 18.742188 -50.101562 17.113281 -47.765625 15.8125 -44.921875 C 14.519531 -42.085938 13.875 -38.679688 13.875 -34.703125 C 13.875 -30.828125 14.492188 -27.484375 15.734375 -24.671875 C 16.984375 -21.859375 18.613281 -19.539062 20.625 -17.71875 C 22.644531 -15.90625 25.035156 -14.535156 27.796875 -13.609375 C 30.554688 -12.691406 33.40625 -12.234375 36.34375 -12.234375 C 41.375 -12.234375 45.742188 -13.015625 49.453125 -14.578125 C 53.160156 -16.148438 56.351562 -18.234375 59.03125 -20.828125 Z M 66.953125 -9.921875 "/></g></g></g><g fill="#141938" fill-opacity="1"><g transform="translate(509.946024, 124.366851)"><g><path d="M 71.359375 -34.703125 C 71.359375 -29.285156 70.5 -24.359375 68.78125 -19.921875 C 67.0625 -15.492188 64.597656 -11.675781 61.390625 -8.46875 C 58.179688 -5.257812 54.335938 -2.757812 49.859375 -0.96875 C 45.378906 0.820312 40.378906 1.71875 34.859375 1.71875 C 29.429688 1.71875 24.476562 0.820312 20 -0.96875 C 15.519531 -2.757812 11.675781 -5.257812 8.46875 -8.46875 C 5.257812 -11.675781 2.796875 -15.492188 1.078125 -19.921875 C -0.640625 -24.359375 -1.5 -29.285156 -1.5 -34.703125 C -1.5 -39.984375 -0.640625 -44.875 1.078125 -49.375 C 2.796875 -53.875 5.257812 -57.753906 8.46875 -61.015625 C 11.675781 -64.273438 15.519531 -66.785156 20 -68.546875 C 24.476562 -70.316406 29.429688 -71.203125 34.859375 -71.203125 C 40.378906 -71.203125 45.378906 -70.316406 49.859375 -68.546875 C 54.335938 -66.785156 58.179688 -64.273438 61.390625 -61.015625 C 64.597656 -57.753906 67.0625 -53.875 68.78125 -49.375 C 70.5 -44.875 71.359375 -39.984375 71.359375 -34.703125 Z M 55.984375 -34.703125 C 55.984375 -37.835938 55.492188 -40.8125 54.515625 -43.625 C 53.546875 -46.4375 52.140625 -48.835938 50.296875 -50.828125 C 48.460938 -52.816406 46.238281 -54.394531 43.625 -55.5625 C 41.007812 -56.738281 38.085938 -57.328125 34.859375 -57.328125 C 31.578125 -57.328125 28.640625 -56.738281 26.046875 -55.5625 C 23.460938 -54.394531 21.273438 -52.816406 19.484375 -50.828125 C 17.691406 -48.835938 16.304688 -46.4375 15.328125 -43.625 C 14.359375 -40.8125 13.875 -37.835938 13.875 -34.703125 C 13.875 -31.421875 14.359375 -28.4375 15.328125 -25.75 C 16.304688 -23.0625 17.691406 -20.695312 19.484375 -18.65625 C 21.273438 -16.613281 23.460938 -15.03125 26.046875 -13.90625 C 28.640625 -12.789062 31.578125 -12.234375 34.859375 -12.234375 C 38.085938 -12.234375 41.007812 -12.789062 43.625 -13.90625 C 46.238281 -15.03125 48.460938 -16.613281 50.296875 -18.65625 C 52.140625 -20.695312 53.546875 -23.0625 54.515625 -25.75 C 55.492188 -28.4375 55.984375 -31.421875 55.984375 -34.703125 Z M 55.984375 -34.703125 "/></g></g></g><g fill="#141938" fill-opacity="1"><g transform="translate(593.387277, 124.366851)"><g><path d="M 44.1875 -78.59375 L 25.375 -78.59375 L 25.375 -97.40625 L 44.1875 -97.40625 Z M 58.375 0 L 11.640625 0 L 11.640625 -13.875 L 27.015625 -13.875 L 27.015625 -55.609375 L 11.640625 -55.609375 L 11.640625 -69.5625 L 42.46875 -69.5625 L 42.46875 -13.875 L 58.375 -13.875 Z M 58.375 0 "/></g></g></g><g fill="#141938" fill-opacity="1"><g transform="translate(676.828531, 124.366851)"><g><path d="M 65.90625 0 L 50.453125 0 L 50.453125 -42.921875 C 50.453125 -48.335938 49.429688 -52.09375 47.390625 -54.1875 C 45.347656 -56.28125 42.390625 -57.328125 38.515625 -57.328125 C 32.796875 -57.328125 28.128906 -55.007812 24.515625 -50.375 C 20.910156 -45.75 19.109375 -39.359375 19.109375 -31.203125 L 19.109375 0 L 3.65625 0 L 3.65625 -69.5625 L 19.109375 -69.5625 L 19.109375 -52.09375 C 20.648438 -58.113281 23.507812 -62.800781 27.6875 -66.15625 C 31.863281 -69.519531 37.015625 -71.203125 43.140625 -71.203125 C 50.253906 -71.203125 55.828125 -68.890625 59.859375 -64.265625 C 63.890625 -59.640625 65.90625 -52.523438 65.90625 -42.921875 Z M 65.90625 0 "/></g></g></g></g></g></g><g clip-path="url(#b5d57f4645)"><g><g clip-path="url(#323989d077)"><g fill="#ff00ff" fill-opacity="1"><g transform="translate(8.617983, 124.366851)"><g><path d="M 3.65625 -69.5625 L 19.109375 -69.5625 L 19.109375 -63.296875 C 22.046875 -65.929688 25.019531 -67.90625 28.03125 -69.21875 C 31.039062 -70.539062 34.484375 -71.203125 38.359375 -71.203125 C 42.835938 -71.203125 46.992188 -70.289062 50.828125 -68.46875 C 54.660156 -66.65625 57.941406 -64.144531 60.671875 -60.9375 C 63.410156 -57.726562 65.578125 -53.875 67.171875 -49.375 C 68.765625 -44.875 69.5625 -39.984375 69.5625 -34.703125 C 69.5625 -29.378906 68.765625 -24.476562 67.171875 -20 C 65.578125 -15.519531 63.410156 -11.675781 60.671875 -8.46875 C 57.941406 -5.257812 54.660156 -2.757812 50.828125 -0.96875 C 46.992188 0.820312 42.835938 1.71875 38.359375 1.71875 C 34.484375 1.71875 31.039062 1.019531 28.03125 -0.375 C 25.019531 -1.769531 22.046875 -3.785156 19.109375 -6.421875 L 19.109375 27.84375 L 3.65625 27.84375 Z M 19.109375 -18.65625 C 20.953125 -16.613281 23.300781 -15.03125 26.15625 -13.90625 C 29.019531 -12.789062 31.769531 -12.234375 34.40625 -12.234375 C 40.226562 -12.234375 44.96875 -14.296875 48.625 -18.421875 C 52.28125 -22.554688 54.109375 -27.984375 54.109375 -34.703125 C 54.109375 -41.421875 52.28125 -46.867188 48.625 -51.046875 C 44.96875 -55.234375 40.226562 -57.328125 34.40625 -57.328125 C 31.769531 -57.328125 29.019531 -56.789062 26.15625 -55.71875 C 23.300781 -54.644531 20.953125 -53.085938 19.109375 -51.046875 Z M 19.109375 -18.65625 "/></g></g></g><g fill="#ff00ff" fill-opacity="1"><g transform="translate(92.059237, 124.366851)"><g><path d="M 67.84375 -53.0625 C 66 -53.957031 64.117188 -54.640625 62.203125 -55.109375 C 60.296875 -55.585938 58.097656 -55.828125 55.609375 -55.828125 C 52.171875 -55.828125 48.945312 -55.316406 45.9375 -54.296875 C 42.925781 -53.273438 40.328125 -51.742188 38.140625 -49.703125 C 35.953125 -47.671875 34.25 -45.125 33.03125 -42.0625 C 31.8125 -39 31.203125 -35.378906 31.203125 -31.203125 L 31.203125 -13.875 L 46.796875 -13.875 L 46.796875 0 L 0 0 L 0 -13.875 L 15.75 -13.875 L 15.75 -55.609375 L 0 -55.609375 L 0 -69.5625 L 31.203125 -69.5625 L 31.203125 -52.09375 C 33.734375 -59.0625 37.472656 -63.988281 42.421875 -66.875 C 47.378906 -69.757812 53.265625 -71.203125 60.078125 -71.203125 C 62.222656 -71.203125 64.460938 -70.976562 66.796875 -70.53125 C 69.140625 -70.082031 71.429688 -69.285156 73.671875 -68.140625 Z M 67.84375 -53.0625 "/></g></g></g><g fill="#ff00ff" fill-opacity="1"><g transform="translate(175.50049, 124.366851)"><g><path d="M 71.359375 -34.703125 C 71.359375 -29.285156 70.5 -24.359375 68.78125 -19.921875 C 67.0625 -15.492188 64.597656 -11.675781 61.390625 -8.46875 C 58.179688 -5.257812 54.335938 -2.757812 49.859375 -0.96875 C 45.378906 0.820312 40.378906 1.71875 34.859375 1.71875 C 29.429688 1.71875 24.476562 0.820312 20 -0.96875 C 15.519531 -2.757812 11.675781 -5.257812 8.46875 -8.46875 C 5.257812 -11.675781 2.796875 -15.492188 1.078125 -19.921875 C -0.640625 -24.359375 -1.5 -29.285156 -1.5 -34.703125 C -1.5 -39.984375 -0.640625 -44.875 1.078125 -49.375 C 2.796875 -53.875 5.257812 -57.753906 8.46875 -61.015625 C 11.675781 -64.273438 15.519531 -66.785156 20 -68.546875 C 24.476562 -70.316406 29.429688 -71.203125 34.859375 -71.203125 C 40.378906 -71.203125 45.378906 -70.316406 49.859375 -68.546875 C 54.335938 -66.785156 58.179688 -64.273438 61.390625 -61.015625 C 64.597656 -57.753906 67.0625 -53.875 68.78125 -49.375 C 70.5 -44.875 71.359375 -39.984375 71.359375 -34.703125 Z M 55.984375 -34.703125 C 55.984375 -37.835938 55.492188 -40.8125 54.515625 -43.625 C 53.546875 -46.4375 52.140625 -48.835938 50.296875 -50.828125 C 48.460938 -52.816406 46.238281 -54.394531 43.625 -55.5625 C 41.007812 -56.738281 38.085938 -57.328125 34.859375 -57.328125 C 31.578125 -57.328125 28.640625 -56.738281 26.046875 -55.5625 C 23.460938 -54.394531 21.273438 -52.816406 19.484375 -50.828125 C 17.691406 -48.835938 16.304688 -46.4375 15.328125 -43.625 C 14.359375 -40.8125 13.875 -37.835938 13.875 -34.703125 C 13.875 -31.421875 14.359375 -28.4375 15.328125 -25.75 C 16.304688 -23.0625 17.691406 -20.695312 19.484375 -18.65625 C 21.273438 -16.613281 23.460938 -15.03125 26.046875 -13.90625 C 28.640625 -12.789062 31.578125 -12.234375 34.859375 -12.234375 C 38.085938 -12.234375 41.007812 -12.789062 43.625 -13.90625 C 46.238281 -15.03125 48.460938 -16.613281 50.296875 -18.65625 C 52.140625 -20.695312 53.546875 -23.0625 54.515625 -25.75 C 55.492188 -28.4375 55.984375 -31.421875 55.984375 -34.703125 Z M 55.984375 -34.703125 "/></g></g></g><g fill="#ff00ff" fill-opacity="1"><g transform="translate(258.941743, 124.366851)"><g><path d="M 25.671875 29.484375 C 15.078125 29.484375 6.519531 25.523438 0 17.609375 L 9.1875 7.3125 C 11.519531 10.101562 14.003906 12.179688 16.640625 13.546875 C 19.273438 14.910156 22.285156 15.59375 25.671875 15.59375 C 30.898438 15.59375 34.753906 14.160156 37.234375 11.296875 C 39.722656 8.441406 40.96875 4.675781 40.96875 0 L 40.96875 -55.609375 L 25.234375 -55.609375 L 25.234375 -69.5625 L 56.421875 -69.5625 L 56.421875 0 C 56.421875 4.476562 55.675781 8.53125 54.1875 12.15625 C 52.695312 15.789062 50.609375 18.898438 47.921875 21.484375 C 45.234375 24.078125 42 26.054688 38.21875 27.421875 C 34.4375 28.796875 30.253906 29.484375 25.671875 29.484375 Z M 58.0625 -78.59375 L 39.265625 -78.59375 L 39.265625 -97.40625 L 58.0625 -97.40625 Z M 58.0625 -78.59375 "/></g></g></g><g fill="#ff00ff" fill-opacity="1"><g transform="translate(342.382996, 124.366851)"><g><path d="M 14.1875 -28.890625 C 14.925781 -24.109375 17.195312 -20.132812 21 -16.96875 C 24.8125 -13.8125 29.925781 -12.234375 36.34375 -12.234375 C 41.375 -12.234375 45.742188 -13.015625 49.453125 -14.578125 C 53.160156 -16.148438 56.351562 -18.234375 59.03125 -20.828125 L 66.953125 -9.921875 C 62.472656 -5.441406 57.734375 -2.378906 52.734375 -0.734375 C 47.734375 0.898438 42.269531 1.71875 36.34375 1.71875 C 30.96875 1.71875 25.96875 0.820312 21.34375 -0.96875 C 16.71875 -2.757812 12.710938 -5.257812 9.328125 -8.46875 C 5.941406 -11.675781 3.289062 -15.492188 1.375 -19.921875 C -0.539062 -24.359375 -1.5 -29.285156 -1.5 -34.703125 C -1.5 -39.984375 -0.613281 -44.847656 1.15625 -49.296875 C 2.925781 -53.753906 5.414062 -57.609375 8.625 -60.859375 C 11.832031 -64.117188 15.675781 -66.65625 20.15625 -68.46875 C 24.632812 -70.289062 29.582031 -71.203125 35 -71.203125 C 40.625 -71.203125 45.722656 -70.242188 50.296875 -68.328125 C 54.878906 -66.410156 58.800781 -63.632812 62.0625 -60 C 65.320312 -56.375 67.867188 -51.9375 69.703125 -46.6875 C 71.546875 -41.4375 72.46875 -35.503906 72.46875 -28.890625 Z M 55.015625 -42.46875 C 54.210938 -46.945312 51.894531 -50.539062 48.0625 -53.25 C 44.226562 -55.96875 39.875 -57.328125 35 -57.328125 C 30.125 -57.328125 25.742188 -55.96875 21.859375 -53.25 C 17.984375 -50.539062 15.648438 -46.945312 14.859375 -42.46875 Z M 55.015625 -42.46875 "/></g></g></g><g fill="#ff00ff" fill-opacity="1"><g transform="translate(425.82425, 124.366851)"><g><path d="M 66.953125 -9.921875 C 62.472656 -5.441406 57.753906 -2.378906 52.796875 -0.734375 C 47.847656 0.898438 42.488281 1.71875 36.71875 1.71875 C 30.894531 1.71875 25.609375 0.847656 20.859375 -0.890625 C 16.109375 -2.640625 12.078125 -5.09375 8.765625 -8.25 C 5.460938 -11.40625 2.925781 -15.222656 1.15625 -19.703125 C -0.613281 -24.179688 -1.5 -29.179688 -1.5 -34.703125 C -1.5 -39.984375 -0.613281 -44.875 1.15625 -49.375 C 2.925781 -53.875 5.316406 -57.726562 8.328125 -60.9375 C 11.335938 -64.144531 14.878906 -66.65625 18.953125 -68.46875 C 23.035156 -70.289062 27.363281 -71.203125 31.9375 -71.203125 C 36.71875 -71.203125 40.875 -70.207031 44.40625 -68.21875 C 47.9375 -66.226562 50.5 -63.316406 52.09375 -59.484375 L 52.09375 -69.5625 L 65.90625 -69.5625 L 65.90625 -37.171875 L 52.09375 -37.171875 C 52.09375 -43.285156 50.410156 -48.171875 47.046875 -51.828125 C 43.691406 -55.492188 39.328125 -57.328125 33.953125 -57.328125 C 31.816406 -57.328125 29.566406 -56.890625 27.203125 -56.015625 C 24.835938 -55.140625 22.671875 -53.78125 20.703125 -51.9375 C 18.742188 -50.101562 17.113281 -47.765625 15.8125 -44.921875 C 14.519531 -42.085938 13.875 -38.679688 13.875 -34.703125 C 13.875 -30.828125 14.492188 -27.484375 15.734375 -24.671875 C 16.984375 -21.859375 18.613281 -19.539062 20.625 -17.71875 C 22.644531 -15.90625 25.035156 -14.535156 27.796875 -13.609375 C 30.554688 -12.691406 33.40625 -12.234375 36.34375 -12.234375 C 41.375 -12.234375 45.742188 -13.015625 49.453125 -14.578125 C 53.160156 -16.148438 56.351562 -18.234375 59.03125 -20.828125 Z M 66.953125 -9.921875 "/></g></g></g><g fill="#ff00ff" fill-opacity="1"><g transform="translate(509.265503, 124.366851)"><g><path d="M 70.3125 -22.171875 C 69.507812 -14.859375 66.632812 -9.046875 61.6875 -4.734375 C 56.738281 -0.429688 50.554688 1.71875 43.140625 1.71875 C 39.054688 1.71875 35.320312 1.046875 31.9375 -0.296875 C 28.5625 -1.640625 25.675781 -3.503906 23.28125 -5.890625 C 20.894531 -8.285156 19.039062 -11.160156 17.71875 -14.515625 C 16.40625 -17.878906 15.75 -21.550781 15.75 -25.53125 L 15.75 -55.609375 L 0 -55.609375 L 0 -69.5625 L 15.75 -69.5625 L 15.75 -97.40625 L 31.203125 -97.40625 L 31.203125 -69.5625 L 60.375 -69.5625 L 60.375 -55.609375 L 31.203125 -55.609375 L 31.203125 -25.53125 C 31.203125 -21.050781 32.296875 -17.710938 34.484375 -15.515625 C 36.671875 -13.328125 39.554688 -12.234375 43.140625 -12.234375 C 47.515625 -12.234375 50.769531 -13.503906 52.90625 -16.046875 C 55.050781 -18.585938 56.320312 -21.648438 56.71875 -25.234375 Z M 70.3125 -22.171875 "/></g></g></g><g fill="#00ffff" fill-opacity="1"><g transform="translate(-1.126849, 124.366851)"><g><path d="M 3.65625 -69.5625 L 19.109375 -69.5625 L 19.109375 -63.296875 C 22.046875 -65.929688 25.019531 -67.90625 28.03125 -69.21875 C 31.039062 -70.539062 34.484375 -71.203125 38.359375 -71.203125 C 42.835938 -71.203125 46.992188 -70.289062 50.828125 -68.46875 C 54.660156 -66.65625 57.941406 -64.144531 60.671875 -60.9375 C 63.410156 -57.726562 65.578125 -53.875 67.171875 -49.375 C 68.765625 -44.875 69.5625 -39.984375 69.5625 -34.703125 C 69.5625 -29.378906 68.765625 -24.476562 67.171875 -20 C 65.578125 -15.519531 63.410156 -11.675781 60.671875 -8.46875 C 57.941406 -5.257812 54.660156 -2.757812 50.828125 -0.96875 C 46.992188 0.820312 42.835938 1.71875 38.359375 1.71875 C 34.484375 1.71875 31.039062 1.019531 28.03125 -0.375 C 25.019531 -1.769531 22.046875 -3.785156 19.109375 -6.421875 L 19.109375 27.84375 L 3.65625 27.84375 Z M 19.109375 -18.65625 C 20.953125 -16.613281 23.300781 -15.03125 26.15625 -13.90625 C 29.019531 -12.789062 31.769531 -12.234375 34.40625 -12.234375 C 40.226562 -12.234375 44.96875 -14.296875 48.625 -18.421875 C 52.28125 -22.554688 54.109375 -27.984375 54.109375 -34.703125 C 54.109375 -41.421875 52.28125 -46.867188 48.625 -51.046875 C 44.96875 -55.234375 40.226562 -57.328125 34.40625 -57.328125 C 31.769531 -57.328125 29.019531 -56.789062 26.15625 -55.71875 C 23.300781 -54.644531 20.953125 -53.085938 19.109375 -51.046875 Z M 19.109375 -18.65625 "/></g></g></g><g fill="#00ffff" fill-opacity="1"><g transform="translate(82.314405, 124.366851)"><g><path d="M 67.84375 -53.0625 C 66 -53.957031 64.117188 -54.640625 62.203125 -55.109375 C 60.296875 -55.585938 58.097656 -55.828125 55.609375 -55.828125 C 52.171875 -55.828125 48.945312 -55.316406 45.9375 -54.296875 C 42.925781 -53.273438 40.328125 -51.742188 38.140625 -49.703125 C 35.953125 -47.671875 34.25 -45.125 33.03125 -42.0625 C 31.8125 -39 31.203125 -35.378906 31.203125 -31.203125 L 31.203125 -13.875 L 46.796875 -13.875 L 46.796875 0 L 0 0 L 0 -13.875 L 15.75 -13.875 L 15.75 -55.609375 L 0 -55.609375 L 0 -69.5625 L 31.203125 -69.5625 L 31.203125 -52.09375 C 33.734375 -59.0625 37.472656 -63.988281 42.421875 -66.875 C 47.378906 -69.757812 53.265625 -71.203125 60.078125 -71.203125 C 62.222656 -71.203125 64.460938 -70.976562 66.796875 -70.53125 C 69.140625 -70.082031 71.429688 -69.285156 73.671875 -68.140625 Z M 67.84375 -53.0625 "/></g></g></g><g fill="#00ffff" fill-opacity="1"><g transform="translate(165.755658, 124.366851)"><g><path d="M 71.359375 -34.703125 C 71.359375 -29.285156 70.5 -24.359375 68.78125 -19.921875 C 67.0625 -15.492188 64.597656 -11.675781 61.390625 -8.46875 C 58.179688 -5.257812 54.335938 -2.757812 49.859375 -0.96875 C 45.378906 0.820312 40.378906 1.71875 34.859375 1.71875 C 29.429688 1.71875 24.476562 0.820312 20 -0.96875 C 15.519531 -2.757812 11.675781 -5.257812 8.46875 -8.46875 C 5.257812 -11.675781 2.796875 -15.492188 1.078125 -19.921875 C -0.640625 -24.359375 -1.5 -29.285156 -1.5 -34.703125 C -1.5 -39.984375 -0.640625 -44.875 1.078125 -49.375 C 2.796875 -53.875 5.257812 -57.753906 8.46875 -61.015625 C 11.675781 -64.273438 15.519531 -66.785156 20 -68.546875 C 24.476562 -70.316406 29.429688 -71.203125 34.859375 -71.203125 C 40.378906 -71.203125 45.378906 -70.316406 49.859375 -68.546875 C 54.335938 -66.785156 58.179688 -64.273438 61.390625 -61.015625 C 64.597656 -57.753906 67.0625 -53.875 68.78125 -49.375 C 70.5 -44.875 71.359375 -39.984375 71.359375 -34.703125 Z M 55.984375 -34.703125 C 55.984375 -37.835938 55.492188 -40.8125 54.515625 -43.625 C 53.546875 -46.4375 52.140625 -48.835938 50.296875 -50.828125 C 48.460938 -52.816406 46.238281 -54.394531 43.625 -55.5625 C 41.007812 -56.738281 38.085938 -57.328125 34.859375 -57.328125 C 31.578125 -57.328125 28.640625 -56.738281 26.046875 -55.5625 C 23.460938 -54.394531 21.273438 -52.816406 19.484375 -50.828125 C 17.691406 -48.835938 16.304688 -46.4375 15.328125 -43.625 C 14.359375 -40.8125 13.875 -37.835938 13.875 -34.703125 C 13.875 -31.421875 14.359375 -28.4375 15.328125 -25.75 C 16.304688 -23.0625 17.691406 -20.695312 19.484375 -18.65625 C 21.273438 -16.613281 23.460938 -15.03125 26.046875 -13.90625 C 28.640625 -12.789062 31.578125 -12.234375 34.859375 -12.234375 C 38.085938 -12.234375 41.007812 -12.789062 43.625 -13.90625 C 46.238281 -15.03125 48.460938 -16.613281 50.296875 -18.65625 C 52.140625 -20.695312 53.546875 -23.0625 54.515625 -25.75 C 55.492188 -28.4375 55.984375 -31.421875 55.984375 -34.703125 Z M 55.984375 -34.703125 "/></g></g></g><g fill="#00ffff" fill-opacity="1"><g transform="translate(249.196911, 124.366851)"><g><path d="M 25.671875 29.484375 C 15.078125 29.484375 6.519531 25.523438 0 17.609375 L 9.1875 7.3125 C 11.519531 10.101562 14.003906 12.179688 16.640625 13.546875 C 19.273438 14.910156 22.285156 15.59375 25.671875 15.59375 C 30.898438 15.59375 34.753906 14.160156 37.234375 11.296875 C 39.722656 8.441406 40.96875 4.675781 40.96875 0 L 40.96875 -55.609375 L 25.234375 -55.609375 L 25.234375 -69.5625 L 56.421875 -69.5625 L 56.421875 0 C 56.421875 4.476562 55.675781 8.53125 54.1875 12.15625 C 52.695312 15.789062 50.609375 18.898438 47.921875 21.484375 C 45.234375 24.078125 42 26.054688 38.21875 27.421875 C 34.4375 28.796875 30.253906 29.484375 25.671875 29.484375 Z M 58.0625 -78.59375 L 39.265625 -78.59375 L 39.265625 -97.40625 L 58.0625 -97.40625 Z M 58.0625 -78.59375 "/></g></g></g><g fill="#00ffff" fill-opacity="1"><g transform="translate(332.638164, 124.366851)"><g><path d="M 14.1875 -28.890625 C 14.925781 -24.109375 17.195312 -20.132812 21 -16.96875 C 24.8125 -13.8125 29.925781 -12.234375 36.34375 -12.234375 C 41.375 -12.234375 45.742188 -13.015625 49.453125 -14.578125 C 53.160156 -16.148438 56.351562 -18.234375 59.03125 -20.828125 L 66.953125 -9.921875 C 62.472656 -5.441406 57.734375 -2.378906 52.734375 -0.734375 C 47.734375 0.898438 42.269531 1.71875 36.34375 1.71875 C 30.96875 1.71875 25.96875 0.820312 21.34375 -0.96875 C 16.71875 -2.757812 12.710938 -5.257812 9.328125 -8.46875 C 5.941406 -11.675781 3.289062 -15.492188 1.375 -19.921875 C -0.539062 -24.359375 -1.5 -29.285156 -1.5 -34.703125 C -1.5 -39.984375 -0.613281 -44.847656 1.15625 -49.296875 C 2.925781 -53.753906 5.414062 -57.609375 8.625 -60.859375 C 11.832031 -64.117188 15.675781 -66.65625 20.15625 -68.46875 C 24.632812 -70.289062 29.582031 -71.203125 35 -71.203125 C 40.625 -71.203125 45.722656 -70.242188 50.296875 -68.328125 C 54.878906 -66.410156 58.800781 -63.632812 62.0625 -60 C 65.320312 -56.375 67.867188 -51.9375 69.703125 -46.6875 C 71.546875 -41.4375 72.46875 -35.503906 72.46875 -28.890625 Z M 55.015625 -42.46875 C 54.210938 -46.945312 51.894531 -50.539062 48.0625 -53.25 C 44.226562 -55.96875 39.875 -57.328125 35 -57.328125 C 30.125 -57.328125 25.742188 -55.96875 21.859375 -53.25 C 17.984375 -50.539062 15.648438 -46.945312 14.859375 -42.46875 Z M 55.015625 -42.46875 "/></g></g></g><g fill="#00ffff" fill-opacity="1"><g transform="translate(416.079418, 124.366851)"><g><path d="M 66.953125 -9.921875 C 62.472656 -5.441406 57.753906 -2.378906 52.796875 -0.734375 C 47.847656 0.898438 42.488281 1.71875 36.71875 1.71875 C 30.894531 1.71875 25.609375 0.847656 20.859375 -0.890625 C 16.109375 -2.640625 12.078125 -5.09375 8.765625 -8.25 C 5.460938 -11.40625 2.925781 -15.222656 1.15625 -19.703125 C -0.613281 -24.179688 -1.5 -29.179688 -1.5 -34.703125 C -1.5 -39.984375 -0.613281 -44.875 1.15625 -49.375 C 2.925781 -53.875 5.316406 -57.726562 8.328125 -60.9375 C 11.335938 -64.144531 14.878906 -66.65625 18.953125 -68.46875 C 23.035156 -70.289062 27.363281 -71.203125 31.9375 -71.203125 C 36.71875 -71.203125 40.875 -70.207031 44.40625 -68.21875 C 47.9375 -66.226562 50.5 -63.316406 52.09375 -59.484375 L 52.09375 -69.5625 L 65.90625 -69.5625 L 65.90625 -37.171875 L 52.09375 -37.171875 C 52.09375 -43.285156 50.410156 -48.171875 47.046875 -51.828125 C 43.691406 -55.492188 39.328125 -57.328125 33.953125 -57.328125 C 31.816406 -57.328125 29.566406 -56.890625 27.203125 -56.015625 C 24.835938 -55.140625 22.671875 -53.78125 20.703125 -51.9375 C 18.742188 -50.101562 17.113281 -47.765625 15.8125 -44.921875 C 14.519531 -42.085938 13.875 -38.679688 13.875 -34.703125 C 13.875 -30.828125 14.492188 -27.484375 15.734375 -24.671875 C 16.984375 -21.859375 18.613281 -19.539062 20.625 -17.71875 C 22.644531 -15.90625 25.035156 -14.535156 27.796875 -13.609375 C 30.554688 -12.691406 33.40625 -12.234375 36.34375 -12.234375 C 41.375 -12.234375 45.742188 -13.015625 49.453125 -14.578125 C 53.160156 -16.148438 56.351562 -18.234375 59.03125 -20.828125 Z M 66.953125 -9.921875 "/></g></g></g><g fill="#00ffff" fill-opacity="1"><g transform="translate(499.520671, 124.366851)"><g><path d="M 70.3125 -22.171875 C 69.507812 -14.859375 66.632812 -9.046875 61.6875 -4.734375 C 56.738281 -0.429688 50.554688 1.71875 43.140625 1.71875 C 39.054688 1.71875 35.320312 1.046875 31.9375 -0.296875 C 28.5625 -1.640625 25.675781 -3.503906 23.28125 -5.890625 C 20.894531 -8.285156 19.039062 -11.160156 17.71875 -14.515625 C 16.40625 -17.878906 15.75 -21.550781 15.75 -25.53125 L 15.75 -55.609375 L 0 -55.609375 L 0 -69.5625 L 15.75 -69.5625 L 15.75 -97.40625 L 31.203125 -97.40625 L 31.203125 -69.5625 L 60.375 -69.5625 L 60.375 -55.609375 L 31.203125 -55.609375 L 31.203125 -25.53125 C 31.203125 -21.050781 32.296875 -17.710938 34.484375 -15.515625 C 36.671875 -13.328125 39.554688 -12.234375 43.140625 -12.234375 C 47.515625 -12.234375 50.769531 -13.503906 52.90625 -16.046875 C 55.050781 -18.585938 56.320312 -21.648438 56.71875 -25.234375 Z M 70.3125 -22.171875 "/></g></g></g><g fill="#141938" fill-opacity="1"><g transform="translate(3.745567, 124.366851)"><g><path d="M 3.65625 -69.5625 L 19.109375 -69.5625 L 19.109375 -63.296875 C 22.046875 -65.929688 25.019531 -67.90625 28.03125 -69.21875 C 31.039062 -70.539062 34.484375 -71.203125 38.359375 -71.203125 C 42.835938 -71.203125 46.992188 -70.289062 50.828125 -68.46875 C 54.660156 -66.65625 57.941406 -64.144531 60.671875 -60.9375 C 63.410156 -57.726562 65.578125 -53.875 67.171875 -49.375 C 68.765625 -44.875 69.5625 -39.984375 69.5625 -34.703125 C 69.5625 -29.378906 68.765625 -24.476562 67.171875 -20 C 65.578125 -15.519531 63.410156 -11.675781 60.671875 -8.46875 C 57.941406 -5.257812 54.660156 -2.757812 50.828125 -0.96875 C 46.992188 0.820312 42.835938 1.71875 38.359375 1.71875 C 34.484375 1.71875 31.039062 1.019531 28.03125 -0.375 C 25.019531 -1.769531 22.046875 -3.785156 19.109375 -6.421875 L 19.109375 27.84375 L 3.65625 27.84375 Z M 19.109375 -18.65625 C 20.953125 -16.613281 23.300781 -15.03125 26.15625 -13.90625 C 29.019531 -12.789062 31.769531 -12.234375 34.40625 -12.234375 C 40.226562 -12.234375 44.96875 -14.296875 48.625 -18.421875 C 52.28125 -22.554688 54.109375 -27.984375 54.109375 -34.703125 C 54.109375 -41.421875 52.28125 -46.867188 48.625 -51.046875 C 44.96875 -55.234375 40.226562 -57.328125 34.40625 -57.328125 C 31.769531 -57.328125 29.019531 -56.789062 26.15625 -55.71875 C 23.300781 -54.644531 20.953125 -53.085938 19.109375 -51.046875 Z M 19.109375 -18.65625 "/></g></g></g><g fill="#141938" fill-opacity="1"><g transform="translate(87.186821, 124.366851)"><g><path d="M 67.84375 -53.0625 C 66 -53.957031 64.117188 -54.640625 62.203125 -55.109375 C 60.296875 -55.585938 58.097656 -55.828125 55.609375 -55.828125 C 52.171875 -55.828125 48.945312 -55.316406 45.9375 -54.296875 C 42.925781 -53.273438 40.328125 -51.742188 38.140625 -49.703125 C 35.953125 -47.671875 34.25 -45.125 33.03125 -42.0625 C 31.8125 -39 31.203125 -35.378906 31.203125 -31.203125 L 31.203125 -13.875 L 46.796875 -13.875 L 46.796875 0 L 0 0 L 0 -13.875 L 15.75 -13.875 L 15.75 -55.609375 L 0 -55.609375 L 0 -69.5625 L 31.203125 -69.5625 L 31.203125 -52.09375 C 33.734375 -59.0625 37.472656 -63.988281 42.421875 -66.875 C 47.378906 -69.757812 53.265625 -71.203125 60.078125 -71.203125 C 62.222656 -71.203125 64.460938 -70.976562 66.796875 -70.53125 C 69.140625 -70.082031 71.429688 -69.285156 73.671875 -68.140625 Z M 67.84375 -53.0625 "/></g></g></g><g fill="#141938" fill-opacity="1"><g transform="translate(170.628074, 124.366851)"><g><path d="M 71.359375 -34.703125 C 71.359375 -29.285156 70.5 -24.359375 68.78125 -19.921875 C 67.0625 -15.492188 64.597656 -11.675781 61.390625 -8.46875 C 58.179688 -5.257812 54.335938 -2.757812 49.859375 -0.96875 C 45.378906 0.820312 40.378906 1.71875 34.859375 1.71875 C 29.429688 1.71875 24.476562 0.820312 20 -0.96875 C 15.519531 -2.757812 11.675781 -5.257812 8.46875 -8.46875 C 5.257812 -11.675781 2.796875 -15.492188 1.078125 -19.921875 C -0.640625 -24.359375 -1.5 -29.285156 -1.5 -34.703125 C -1.5 -39.984375 -0.640625 -44.875 1.078125 -49.375 C 2.796875 -53.875 5.257812 -57.753906 8.46875 -61.015625 C 11.675781 -64.273438 15.519531 -66.785156 20 -68.546875 C 24.476562 -70.316406 29.429688 -71.203125 34.859375 -71.203125 C 40.378906 -71.203125 45.378906 -70.316406 49.859375 -68.546875 C 54.335938 -66.785156 58.179688 -64.273438 61.390625 -61.015625 C 64.597656 -57.753906 67.0625 -53.875 68.78125 -49.375 C 70.5 -44.875 71.359375 -39.984375 71.359375 -34.703125 Z M 55.984375 -34.703125 C 55.984375 -37.835938 55.492188 -40.8125 54.515625 -43.625 C 53.546875 -46.4375 52.140625 -48.835938 50.296875 -50.828125 C 48.460938 -52.816406 46.238281 -54.394531 43.625 -55.5625 C 41.007812 -56.738281 38.085938 -57.328125 34.859375 -57.328125 C 31.578125 -57.328125 28.640625 -56.738281 26.046875 -55.5625 C 23.460938 -54.394531 21.273438 -52.816406 19.484375 -50.828125 C 17.691406 -48.835938 16.304688 -46.4375 15.328125 -43.625 C 14.359375 -40.8125 13.875 -37.835938 13.875 -34.703125 C 13.875 -31.421875 14.359375 -28.4375 15.328125 -25.75 C 16.304688 -23.0625 17.691406 -20.695312 19.484375 -18.65625 C 21.273438 -16.613281 23.460938 -15.03125 26.046875 -13.90625 C 28.640625 -12.789062 31.578125 -12.234375 34.859375 -12.234375 C 38.085938 -12.234375 41.007812 -12.789062 43.625 -13.90625 C 46.238281 -15.03125 48.460938 -16.613281 50.296875 -18.65625 C 52.140625 -20.695312 53.546875 -23.0625 54.515625 -25.75 C 55.492188 -28.4375 55.984375 -31.421875 55.984375 -34.703125 Z M 55.984375 -34.703125 "/></g></g></g><g fill="#141938" fill-opacity="1"><g transform="translate(254.069327, 124.366851)"><g><path d="M 25.671875 29.484375 C 15.078125 29.484375 6.519531 25.523438 0 17.609375 L 9.1875 7.3125 C 11.519531 10.101562 14.003906 12.179688 16.640625 13.546875 C 19.273438 14.910156 22.285156 15.59375 25.671875 15.59375 C 30.898438 15.59375 34.753906 14.160156 37.234375 11.296875 C 39.722656 8.441406 40.96875 4.675781 40.96875 0 L 40.96875 -55.609375 L 25.234375 -55.609375 L 25.234375 -69.5625 L 56.421875 -69.5625 L 56.421875 0 C 56.421875 4.476562 55.675781 8.53125 54.1875 12.15625 C 52.695312 15.789062 50.609375 18.898438 47.921875 21.484375 C 45.234375 24.078125 42 26.054688 38.21875 27.421875 C 34.4375 28.796875 30.253906 29.484375 25.671875 29.484375 Z M 58.0625 -78.59375 L 39.265625 -78.59375 L 39.265625 -97.40625 L 58.0625 -97.40625 Z M 58.0625 -78.59375 "/></g></g></g><g fill="#141938" fill-opacity="1"><g transform="translate(337.51058, 124.366851)"><g><path d="M 14.1875 -28.890625 C 14.925781 -24.109375 17.195312 -20.132812 21 -16.96875 C 24.8125 -13.8125 29.925781 -12.234375 36.34375 -12.234375 C 41.375 -12.234375 45.742188 -13.015625 49.453125 -14.578125 C 53.160156 -16.148438 56.351562 -18.234375 59.03125 -20.828125 L 66.953125 -9.921875 C 62.472656 -5.441406 57.734375 -2.378906 52.734375 -0.734375 C 47.734375 0.898438 42.269531 1.71875 36.34375 1.71875 C 30.96875 1.71875 25.96875 0.820312 21.34375 -0.96875 C 16.71875 -2.757812 12.710938 -5.257812 9.328125 -8.46875 C 5.941406 -11.675781 3.289062 -15.492188 1.375 -19.921875 C -0.539062 -24.359375 -1.5 -29.285156 -1.5 -34.703125 C -1.5 -39.984375 -0.613281 -44.847656 1.15625 -49.296875 C 2.925781 -53.753906 5.414062 -57.609375 8.625 -60.859375 C 11.832031 -64.117188 15.675781 -66.65625 20.15625 -68.46875 C 24.632812 -70.289062 29.582031 -71.203125 35 -71.203125 C 40.625 -71.203125 45.722656 -70.242188 50.296875 -68.328125 C 54.878906 -66.410156 58.800781 -63.632812 62.0625 -60 C 65.320312 -56.375 67.867188 -51.9375 69.703125 -46.6875 C 71.546875 -41.4375 72.46875 -35.503906 72.46875 -28.890625 Z M 55.015625 -42.46875 C 54.210938 -46.945312 51.894531 -50.539062 48.0625 -53.25 C 44.226562 -55.96875 39.875 -57.328125 35 -57.328125 C 30.125 -57.328125 25.742188 -55.96875 21.859375 -53.25 C 17.984375 -50.539062 15.648438 -46.945312 14.859375 -42.46875 Z M 55.015625 -42.46875 "/></g></g></g><g fill="#141938" fill-opacity="1"><g transform="translate(420.951834, 124.366851)"><g><path d="M 66.953125 -9.921875 C 62.472656 -5.441406 57.753906 -2.378906 52.796875 -0.734375 C 47.847656 0.898438 42.488281 1.71875 36.71875 1.71875 C 30.894531 1.71875 25.609375 0.847656 20.859375 -0.890625 C 16.109375 -2.640625 12.078125 -5.09375 8.765625 -8.25 C 5.460938 -11.40625 2.925781 -15.222656 1.15625 -19.703125 C -0.613281 -24.179688 -1.5 -29.179688 -1.5 -34.703125 C -1.5 -39.984375 -0.613281 -44.875 1.15625 -49.375 C 2.925781 -53.875 5.316406 -57.726562 8.328125 -60.9375 C 11.335938 -64.144531 14.878906 -66.65625 18.953125 -68.46875 C 23.035156 -70.289062 27.363281 -71.203125 31.9375 -71.203125 C 36.71875 -71.203125 40.875 -70.207031 44.40625 -68.21875 C 47.9375 -66.226562 50.5 -63.316406 52.09375 -59.484375 L 52.09375 -69.5625 L 65.90625 -69.5625 L 65.90625 -37.171875 L 52.09375 -37.171875 C 52.09375 -43.285156 50.410156 -48.171875 47.046875 -51.828125 C 43.691406 -55.492188 39.328125 -57.328125 33.953125 -57.328125 C 31.816406 -57.328125 29.566406 -56.890625 27.203125 -56.015625 C 24.835938 -55.140625 22.671875 -53.78125 20.703125 -51.9375 C 18.742188 -50.101562 17.113281 -47.765625 15.8125 -44.921875 C 14.519531 -42.085938 13.875 -38.679688 13.875 -34.703125 C 13.875 -30.828125 14.492188 -27.484375 15.734375 -24.671875 C 16.984375 -21.859375 18.613281 -19.539062 20.625 -17.71875 C 22.644531 -15.90625 25.035156 -14.535156 27.796875 -13.609375 C 30.554688 -12.691406 33.40625 -12.234375 36.34375 -12.234375 C 41.375 -12.234375 45.742188 -13.015625 49.453125 -14.578125 C 53.160156 -16.148438 56.351562 -18.234375 59.03125 -20.828125 Z M 66.953125 -9.921875 "/></g></g></g><g fill="#141938" fill-opacity="1"><g transform="translate(504.393087, 124.366851)"><g><path d="M 70.3125 -22.171875 C 69.507812 -14.859375 66.632812 -9.046875 61.6875 -4.734375 C 56.738281 -0.429688 50.554688 1.71875 43.140625 1.71875 C 39.054688 1.71875 35.320312 1.046875 31.9375 -0.296875 C 28.5625 -1.640625 25.675781 -3.503906 23.28125 -5.890625 C 20.894531 -8.285156 19.039062 -11.160156 17.71875 -14.515625 C 16.40625 -17.878906 15.75 -21.550781 15.75 -25.53125 L 15.75 -55.609375 L 0 -55.609375 L 0 -69.5625 L 15.75 -69.5625 L 15.75 -97.40625 L 31.203125 -97.40625 L 31.203125 -69.5625 L 60.375 -69.5625 L 60.375 -55.609375 L 31.203125 -55.609375 L 31.203125 -25.53125 C 31.203125 -21.050781 32.296875 -17.710938 34.484375 -15.515625 C 36.671875 -13.328125 39.554688 -12.234375 43.140625 -12.234375 C 47.515625 -12.234375 50.769531 -13.503906 52.90625 -16.046875 C 55.050781 -18.585938 56.320312 -21.648438 56.71875 -25.234375 Z M 70.3125 -22.171875 "/></g></g></g></g></g></g></g></g></svg>